<?xml version="1.0" encoding="utf-8"?>
<!-- Generator: Adobe Illustrator 24.1.2, SVG Export Plug-In . SVG Version: 6.00 Build 0)  -->
<svg version="1.1" id="Layer_1" xmlns="http://www.w3.org/2000/svg" xmlns:xlink="http://www.w3.org/1999/xlink" x="0px" y="0px"
	 viewBox="0 0 789.3 355.3" style="enable-background:new 0 0 789.3 355.3;" xml:space="preserve">
<style type="text/css">
	.st0{fill:#FFFFFF;}
</style>
<path class="st0" d="M155.4,211.3c0.2,2.6,0,5.1-0.6,7.4c-0.1,0.6-0.3,1.1-0.4,1.6c0,0.1-0.1,0.3-0.1,0.4l-0.3,0.9l-5.8,16.7
	c-0.2,0.5-1,0.5-1.1,0l-1.9-5.4l-0.4-1.2c-0.6-1.8-3.2-1.7-3.7,0.1l-1,3.8l-7.9,28.8c-0.2,0.6-1,0.6-1.2,0l-7.9-28.8l-1-3.8
	c-0.5-1.8-3.1-1.9-3.7-0.1l-0.4,1.2l-1.9,5.4c-0.2,0.5-1,0.5-1.1,0l-5.8-16.8c-0.1-0.2-0.2-0.5-0.2-0.7c-0.1-0.3-0.2-0.6-0.3-0.9
	c-0.1-0.4-0.2-0.8-0.3-1.2c-0.4-1.8-0.6-3.6-0.6-5.5c0-13.7,11.5-24.7,25.4-23.9C144.8,190.1,154.5,199.6,155.4,211.3"/>
<g>
	<path class="st0" d="M173.4,178h-19.1l-4.9-11.4h-35.7l-4.9,11.4H89.6l39-88.7h5.8L173.4,178z M119.9,152H143l-11.5-29.5L119.9,152
		z"/>
	<path class="st0" d="M222.1,111.2c4.6,0,8.8,0.9,12.7,2.6c3.9,1.7,7.3,4.1,10,7.1c2.8,3,5,6.6,6.5,10.8c1.6,4.1,2.4,8.7,2.4,13.6
		c0,4.9-0.8,9.5-2.4,13.7c-1.6,4.2-3.8,7.8-6.6,10.9c-2.8,3.1-6.2,5.5-10,7.2c-3.9,1.7-8.1,2.6-12.7,2.6c-8.3,0-14.8-2.6-19.5-7.8
		v30h-17.8v-89.1h16.4v8.1c2.3-3.1,5.2-5.4,8.8-7.1C213.5,112,217.6,111.2,222.1,111.2 M219,127.3c-2.1,0-4.2,0.4-6.1,1.1
		c-2,0.7-3.7,1.8-5.3,3.2c-1.5,1.5-2.8,3.3-3.8,5.5c-1,2.2-1.5,5-1.5,8.1c0,3.1,0.5,5.8,1.4,8.1c0.9,2.3,2.2,4.2,3.8,5.7
		c1.6,1.5,3.4,2.6,5.3,3.3c2,0.7,4,1.1,6.1,1.1c2.3,0,4.4-0.4,6.5-1.3c2-0.8,3.8-2,5.3-3.6c1.5-1.5,2.8-3.4,3.6-5.6
		c0.9-2.2,1.3-4.7,1.3-7.5c0-2.7-0.4-5.2-1.3-7.5c-0.9-2.2-2.1-4.2-3.6-5.7c-1.5-1.6-3.3-2.8-5.3-3.6
		C223.4,127.7,221.3,127.3,219,127.3"/>
	<path class="st0" d="M305.5,111.2c4.6,0,8.8,0.9,12.7,2.6c3.9,1.7,7.3,4.1,10,7.1c2.8,3,5,6.6,6.5,10.8c1.6,4.1,2.4,8.7,2.4,13.6
		c0,4.9-0.8,9.5-2.4,13.7c-1.6,4.2-3.8,7.8-6.6,10.9c-2.8,3.1-6.2,5.5-10,7.2c-3.9,1.7-8.1,2.6-12.7,2.6c-8.3,0-14.8-2.6-19.5-7.8
		v30h-17.8v-89.1h16.4v8.1c2.3-3.1,5.2-5.4,8.8-7.1C296.8,112,300.9,111.2,305.5,111.2 M302.3,127.3c-2.1,0-4.2,0.4-6.1,1.1
		c-2,0.7-3.7,1.8-5.3,3.2c-1.5,1.5-2.8,3.3-3.8,5.5c-1,2.2-1.5,5-1.5,8.1c0,3.1,0.5,5.8,1.4,8.1c0.9,2.3,2.2,4.2,3.8,5.7
		c1.6,1.5,3.4,2.6,5.3,3.3c2,0.7,4,1.1,6.1,1.1c2.3,0,4.4-0.4,6.5-1.3c2-0.8,3.8-2,5.3-3.6c1.5-1.5,2.8-3.4,3.6-5.6
		c0.9-2.2,1.3-4.7,1.3-7.5c0-2.7-0.4-5.2-1.3-7.5c-0.9-2.2-2.1-4.2-3.6-5.7c-1.5-1.6-3.3-2.8-5.3-3.6
		C306.7,127.7,304.6,127.3,302.3,127.3"/>
	<rect x="351.4" y="79" class="st0" width="17.8" height="99"/>
	<rect x="388.3" y="112.6" class="st0" width="17.8" height="65.4"/>
	<path class="st0" d="M504.3,163.5c-1.4,0.1-2.6,0.1-3.7,0.1c-4.1,0-7.2-0.7-9.2-2.2c-2-1.5-3-4.1-3-7.9v-25.8h18.6v-15.1h-18.6
		V96.1h-17.8v16.5h-10.2h-0.1H446v-9.1c0-3.8,1-6.4,2.9-7.9c1.9-1.5,4.9-2.2,8.8-2.2c1.5,0,3.3,0.1,5.4,0.4V78.8
		c-1.2-0.4-2.7-0.8-4.3-1.1c-1.6-0.3-3.5-0.4-5.5-0.4c-7.7,0-13.8,2-18.4,6c-4.6,4-6.9,10.2-6.9,18.6v10.7h-9.2v15.1h9.2V178H446
		v-50.3h14.3h0.1h10.2V155c0,8.5,2.3,14.7,7,18.6c4.7,4,11,5.9,19.1,5.9c2.3,0,4.4-0.2,6.5-0.5c2-0.3,4-0.7,5.8-1.1v-14.9
		C507.3,163.3,505.7,163.4,504.3,163.5z"/>
	<rect x="521.6" y="112.6" class="st0" width="17.8" height="65.4"/>
	<path class="st0" d="M593.8,111.2c3.8,0,7.2,0.6,10.3,1.9c3.1,1.3,5.7,3.1,7.8,5.4c2.1,2.3,3.7,5,4.9,8.3c1.1,3.2,1.7,6.8,1.7,10.8
		V178h-17.7v-38.2c0-3.8-1.1-6.8-3.3-9.2c-2.2-2.3-5.2-3.5-8.9-3.5c-3.7,0-6.7,1.2-9,3.5c-2.3,2.3-3.4,5.4-3.4,9.2V178h-17.8v-65.4
		h16.4v6.1c2.3-2.3,5-4.1,8.2-5.5C586.2,111.9,589.8,111.2,593.8,111.2"/>
	<path class="st0" d="M662.4,111.2c4.8,0,8.9,0.8,12.5,2.5c3.6,1.7,6.5,4,8.8,7.1v-8.2H700v58.1c0,5.5-0.8,10.3-2.5,14.4
		c-1.7,4-4,7.4-6.9,10.2c-3,2.7-6.5,4.8-10.6,6.1c-4.1,1.3-8.7,2-13.6,2c-7.1,0-13.4-1.2-18.7-3.6c-5.3-2.4-9.8-5.2-13.5-8.6
		l9.4-12.4c3.3,2.6,6.6,4.6,9.9,6.1c3.3,1.5,7.1,2.3,11.4,2.3c5,0,9.2-1.3,12.5-3.8c3.3-2.5,5-6.4,5-11.7v-3.7
		c-2.4,2.6-5.3,4.6-8.7,5.9c-3.4,1.3-7.2,2-11.3,2c-4.5,0-8.7-0.8-12.5-2.4c-3.9-1.6-7.2-3.8-10-6.6c-2.8-2.8-5-6.2-6.5-10.2
		c-1.6-4-2.4-8.4-2.4-13.3c0-4.9,0.8-9.4,2.4-13.3c1.6-4,3.8-7.4,6.6-10.2c2.8-2.8,6.1-5,10-6.5C653.7,112,657.9,111.2,662.4,111.2
		 M665.8,126.4c-2.3,0-4.5,0.4-6.5,1.1c-2.1,0.8-3.9,1.9-5.3,3.3c-1.5,1.5-2.7,3.2-3.6,5.3c-0.9,2.1-1.3,4.5-1.3,7.3
		c0,2.7,0.4,5.2,1.3,7.3c0.9,2.2,2.1,4,3.6,5.5c1.5,1.5,3.3,2.7,5.4,3.5c2,0.8,4.2,1.2,6.5,1.2c2.1,0,4.2-0.3,6.1-1.1
		c2-0.7,3.7-1.8,5.3-3.2c1.5-1.5,2.8-3.3,3.8-5.5c1-2.2,1.5-4.9,1.5-7.9c0-3-0.5-5.6-1.5-7.7c-1-2.2-2.2-3.9-3.8-5.3
		c-1.6-1.4-3.4-2.4-5.3-3C669.8,126.7,667.8,126.4,665.8,126.4"/>
</g>
</svg>
