<svg width="3435" height="1546" viewBox="0 0 3435 1546" fill="none" xmlns="http://www.w3.org/2000/svg">
<path d="M676.55 919.342C677.42 930.654 676.55 941.532 673.939 951.539C673.504 954.149 672.634 956.325 672.199 958.5C672.199 958.935 671.764 959.805 671.764 960.24L670.458 964.156L645.223 1036.82C644.353 1038.99 640.872 1038.99 640.437 1036.82L632.171 1013.32L630.43 1008.1C627.82 1000.27 616.507 1000.7 614.332 1008.54L609.981 1025.07L575.609 1150.37C574.739 1152.98 571.258 1152.98 570.388 1150.37L536.016 1025.07L531.665 1008.54C529.49 1000.7 518.177 1000.27 515.567 1008.1L513.827 1013.32L505.56 1036.82C504.69 1038.99 501.209 1038.99 500.774 1036.82L475.539 963.721C475.104 962.851 474.669 961.546 474.669 960.675C474.233 959.37 473.798 958.065 473.363 956.76C472.928 955.019 472.493 953.279 472.058 951.539C470.318 943.707 469.448 935.875 469.448 927.609C469.448 868.002 519.483 820.142 579.96 823.623C630.43 827.103 672.634 868.437 676.55 919.342Z" fill="#14141F"/>
<path d="M754.866 774.458H671.764L650.444 724.858H495.118L473.798 774.458H390.261L559.946 388.534H585.181L754.866 774.458ZM522.093 661.335H622.599L572.563 532.983L522.093 661.335Z" fill="#14141F"/>
<path d="M966.754 483.818C986.768 483.818 1005.04 487.734 1022.01 495.131C1038.98 502.527 1053.77 512.969 1065.52 526.022C1077.7 539.075 1087.27 554.738 1093.8 573.012C1100.76 590.85 1104.24 610.864 1104.24 632.184C1104.24 653.503 1100.76 673.517 1093.8 691.791C1086.84 710.065 1077.27 725.728 1065.08 739.215C1052.9 752.703 1038.11 763.145 1021.57 770.542C1004.61 777.938 986.333 781.854 966.318 781.854C930.206 781.854 901.925 770.542 881.476 747.917V878.444H804.03V490.78H875.385V526.022C885.392 512.534 898.01 502.527 913.673 495.131C929.336 487.299 947.175 483.818 966.754 483.818ZM953.266 553.868C944.129 553.868 934.992 555.608 926.725 558.654C918.024 561.699 910.627 566.485 903.666 572.577C897.139 579.103 891.483 586.934 887.132 596.506C882.782 606.078 880.606 618.261 880.606 631.749C880.606 645.236 882.781 656.984 886.697 666.991C890.613 676.998 896.269 685.264 903.231 691.791C910.192 698.317 918.024 703.103 926.29 706.149C934.992 709.194 943.694 710.935 952.831 710.935C962.838 710.935 971.975 709.194 981.111 705.279C989.813 701.798 997.645 696.577 1004.17 689.615C1010.7 683.089 1016.35 674.822 1019.83 665.25C1023.75 655.678 1025.49 644.801 1025.49 632.619C1025.49 620.871 1023.75 609.994 1019.83 599.987C1015.92 590.415 1010.7 581.713 1004.17 575.187C997.645 568.226 989.813 563.005 981.111 559.524C972.41 555.608 963.273 553.868 953.266 553.868Z" fill="#14141F"/>
<path d="M1329.62 483.818C1349.63 483.818 1367.91 487.734 1384.87 495.131C1401.84 502.527 1416.64 512.969 1428.38 526.022C1440.57 539.075 1450.14 554.738 1456.66 573.012C1463.62 590.85 1467.11 610.864 1467.11 632.184C1467.11 653.503 1463.62 673.517 1456.66 691.791C1449.7 710.065 1440.13 725.728 1427.95 739.215C1415.77 752.703 1400.97 763.145 1384.44 770.542C1367.47 777.938 1349.2 781.854 1329.18 781.854C1293.07 781.854 1264.79 770.542 1244.34 747.917V878.444H1166.89V490.78H1238.25V526.022C1248.26 512.534 1260.87 502.527 1276.54 495.131C1291.76 487.299 1309.6 483.818 1329.62 483.818ZM1315.69 553.868C1306.56 553.868 1297.42 555.608 1289.15 558.654C1280.45 561.699 1273.06 566.485 1266.09 572.577C1259.57 579.103 1253.91 586.934 1249.56 596.506C1245.21 606.078 1243.03 618.261 1243.03 631.749C1243.03 645.236 1245.21 656.984 1249.13 666.991C1253.04 676.998 1258.7 685.264 1265.66 691.791C1272.62 698.317 1280.45 703.103 1288.72 706.149C1297.42 709.194 1306.12 710.935 1315.26 710.935C1325.27 710.935 1334.4 709.194 1343.54 705.279C1352.24 701.798 1360.07 696.577 1366.6 689.615C1373.13 683.089 1378.78 674.822 1382.26 665.25C1386.18 655.678 1387.92 644.801 1387.92 632.619C1387.92 620.871 1386.18 609.994 1382.26 599.987C1378.35 590.415 1373.13 581.713 1366.6 575.187C1360.07 568.226 1352.24 563.005 1343.54 559.524C1334.84 555.608 1325.7 553.868 1315.69 553.868Z" fill="#14141F"/>
<path d="M1606.77 343.72H1529.32V774.458H1606.77V343.72Z" fill="#14141F"/>
<path d="M1767.32 489.91H1689.87V774.458H1767.32V489.91Z" fill="#14141F"/>
<path d="M2194.57 711.37C2188.48 711.805 2183.26 711.805 2178.48 711.805C2160.64 711.805 2147.15 708.759 2138.45 702.233C2129.75 695.707 2125.39 684.394 2125.39 667.861V555.608H2206.32V489.91H2125.39V418.12H2047.95V489.91H2003.57H2003.13H1940.92V450.317C1940.92 433.783 1945.27 422.471 1953.53 415.945C1961.8 409.418 1974.85 406.373 1991.82 406.373C1998.35 406.373 2006.18 406.808 2015.32 408.113V342.85C2010.1 341.109 2003.57 339.369 1996.61 338.064C1989.65 336.759 1981.38 336.323 1972.68 336.323C1939.18 336.323 1912.64 345.025 1892.62 362.429C1872.61 379.832 1862.6 406.808 1862.6 443.355V489.91H1822.57V555.608H1862.6V774.458H1940.92V555.608H2003.13H2003.57H2047.95V674.387C2047.95 711.37 2057.96 738.345 2078.4 755.314C2098.85 772.717 2126.26 780.984 2161.51 780.984C2171.51 780.984 2180.65 780.114 2189.79 778.809C2198.49 777.503 2207.19 775.763 2215.02 774.023V709.194C2207.63 710.5 2200.66 710.935 2194.57 711.37Z" fill="#14141F"/>
<path d="M2347.29 489.91H2269.84V774.458H2347.29V489.91Z" fill="#14141F"/>
<path d="M2583.98 483.818C2600.51 483.818 2615.3 486.429 2628.79 492.085C2642.28 497.741 2653.59 505.573 2662.73 515.58C2671.87 525.587 2678.83 537.334 2684.05 551.692C2688.83 565.615 2691.44 581.278 2691.44 598.682V774.458H2614.43V608.254C2614.43 591.72 2609.65 578.668 2600.08 568.226C2590.5 558.219 2577.45 552.998 2561.35 552.998C2545.25 552.998 2532.2 558.219 2522.2 568.226C2512.19 578.233 2507.4 591.72 2507.4 608.254V774.458H2429.96V489.91H2501.31V516.45C2511.32 506.443 2523.07 498.611 2536.99 492.52C2550.91 486.864 2566.57 483.818 2583.98 483.818Z" fill="#14141F"/>
<path d="M2882.45 483.818C2903.33 483.818 2921.17 487.299 2936.83 494.696C2952.5 502.092 2965.12 512.099 2975.12 525.587V489.91H3046.04V742.696C3046.04 766.626 3042.56 787.51 3035.16 805.349C3027.77 822.752 3017.76 837.545 3005.14 849.728C2992.09 861.475 2976.86 870.612 2959.02 876.268C2941.19 881.924 2921.17 884.97 2899.85 884.97C2868.96 884.97 2841.55 879.749 2818.49 869.307C2795.43 858.865 2775.85 846.682 2759.75 831.889L2800.65 777.938C2815.01 789.251 2829.37 797.952 2843.73 804.479C2858.08 811.005 2874.62 814.486 2893.33 814.486C2915.08 814.486 2933.35 808.83 2947.71 797.952C2962.07 787.075 2969.47 770.107 2969.47 747.047V730.949C2959.02 742.261 2946.41 750.963 2931.61 756.619C2916.82 762.275 2900.29 765.321 2882.45 765.321C2862.87 765.321 2844.6 761.84 2828.06 754.879C2811.09 747.917 2796.74 738.345 2784.55 726.163C2772.37 713.98 2762.8 699.187 2756.27 681.784C2749.31 664.38 2745.83 645.236 2745.83 623.917C2745.83 602.598 2749.31 583.019 2756.27 566.05C2763.23 548.647 2772.81 533.854 2784.99 521.671C2797.17 509.489 2811.53 499.917 2828.5 493.39C2844.6 487.299 2862.87 483.818 2882.45 483.818ZM2897.24 549.952C2887.23 549.952 2877.66 551.692 2868.96 554.738C2859.82 558.219 2851.99 563.005 2845.9 569.096C2839.37 575.622 2834.15 583.019 2830.24 592.156C2826.32 601.292 2824.58 611.734 2824.58 623.917C2824.58 635.664 2826.32 646.542 2830.24 655.678C2834.15 665.25 2839.37 673.082 2845.9 679.608C2852.43 686.135 2860.26 691.356 2869.4 694.836C2878.1 698.317 2887.67 700.057 2897.68 700.057C2906.81 700.057 2915.95 698.752 2924.22 695.272C2932.92 692.226 2940.32 687.44 2947.28 681.349C2953.8 674.822 2959.46 666.991 2963.81 657.419C2968.16 647.847 2970.34 636.099 2970.34 623.047C2970.34 609.994 2968.16 598.682 2963.81 589.545C2959.46 579.973 2954.24 572.577 2947.28 566.485C2940.32 560.394 2932.48 556.043 2924.22 553.433C2914.65 551.257 2905.94 549.952 2897.24 549.952Z" fill="#14141F"/>
</svg>
